<svg width="14" height="13" viewBox="0 0 14 13" fill="none" xmlns="http://www.w3.org/2000/svg">
<path d="M13.1008 0.236281C12.7677 -0.0787605 12.2283 -0.0787605 11.8951 0.236281L6.67534 5.17292L1.45552 0.236281C1.12241 -0.0787605 0.582948 -0.0787605 0.249835 0.236281C-0.0832783 0.551055 -0.0832783 1.06179 0.249835 1.37656L5.46965 6.3132L0.249835 11.2498C-0.0832783 11.5646 -0.0832783 12.0754 0.249835 12.3901C0.416391 12.5476 0.634677 12.6264 0.852679 12.6264C1.07068 12.6264 1.28897 12.5476 1.45552 12.3901L6.67534 7.45348L11.8951 12.3901C12.0617 12.5476 12.28 12.6264 12.498 12.6264C12.716 12.6264 12.9343 12.5476 13.1008 12.3901C13.4339 12.0754 13.4339 11.5646 13.1008 11.2498L7.88102 6.3132L13.1008 1.37656C13.4339 1.06179 13.4339 0.550786 13.1008 0.236281Z" fill="#0A4A5C"/>
</svg>
