<svg width="120" height="55" viewBox="0 0 120 55" fill="none" xmlns="http://www.w3.org/2000/svg">
<path d="M18.9251 20.846C18.9251 20.4579 18.8605 20.1119 18.7311 19.8079C18.6018 19.504 18.3883 19.2323 18.0908 18.993C17.7998 18.7473 17.4053 18.5209 16.9073 18.314C16.4157 18.1005 15.8013 17.8903 15.064 17.6834C14.3591 17.4829 13.722 17.263 13.1529 17.0237C12.5838 16.7844 12.0955 16.5095 11.688 16.1991C11.287 15.8886 10.9798 15.5265 10.7664 15.1126C10.553 14.6922 10.4463 14.2039 10.4463 13.6477C10.4463 13.1044 10.5627 12.6096 10.7955 12.1634C11.0283 11.7171 11.3549 11.3323 11.7753 11.0089C12.2022 10.6856 12.7034 10.4366 13.279 10.2619C13.8611 10.0873 14.4981 10 15.1902 10C16.1797 10 17.0334 10.1876 17.7513 10.5627C18.4756 10.9378 19.0351 11.4455 19.4296 12.0858C19.8306 12.7196 20.0311 13.431 20.0311 14.22H18.8378C18.8378 13.6056 18.6923 13.0591 18.4013 12.5805C18.1167 12.0955 17.7028 11.7171 17.1595 11.4455C16.6227 11.1674 15.9663 11.0283 15.1902 11.0283C14.4141 11.0283 13.7608 11.148 13.2305 11.3873C12.7066 11.6201 12.3089 11.9338 12.0373 12.3283C11.7721 12.7163 11.6395 13.1497 11.6395 13.6283C11.6395 13.9646 11.7042 14.275 11.8335 14.5596C11.9629 14.8377 12.1731 15.0996 12.4641 15.3454C12.7616 15.5847 13.1529 15.811 13.638 16.0245C14.123 16.2314 14.7213 16.4287 15.4327 16.6162C16.1829 16.8232 16.8491 17.0528 17.4311 17.305C18.0132 17.5573 18.5047 17.8483 18.9057 18.1781C19.3067 18.5015 19.6107 18.8799 19.8176 19.3132C20.0246 19.7465 20.1281 20.251 20.1281 20.8266C20.1281 21.4022 20.0052 21.9196 19.7594 22.3788C19.5201 22.8315 19.1806 23.2163 18.7408 23.5332C18.3075 23.8501 17.7933 24.0927 17.1983 24.2608C16.6098 24.429 15.9663 24.513 15.2678 24.513C14.6404 24.513 14.0163 24.4322 13.3954 24.2705C12.7746 24.1088 12.2054 23.8598 11.688 23.5235C11.1771 23.1807 10.7664 22.741 10.456 22.2042C10.152 21.6674 10 21.0271 10 20.2833H11.1836C11.1836 20.8783 11.3032 21.3795 11.5425 21.787C11.7818 22.1945 12.0987 22.5243 12.4932 22.7765C12.8942 23.0288 13.334 23.2131 13.8126 23.3295C14.2976 23.4394 14.7827 23.4944 15.2678 23.4944C16.0115 23.4944 16.655 23.3845 17.1983 23.1646C17.7481 22.9447 18.1717 22.6375 18.4692 22.243C18.7731 21.842 18.9251 21.3763 18.9251 20.846Z" fill="white"/>
<path d="M18.9251 20.846C18.9251 20.4579 18.8605 20.1119 18.7311 19.8079C18.6018 19.504 18.3883 19.2323 18.0908 18.993C17.7998 18.7473 17.4053 18.5209 16.9073 18.314C16.4157 18.1005 15.8013 17.8903 15.064 17.6834C14.3591 17.4829 13.722 17.263 13.1529 17.0237C12.5838 16.7844 12.0955 16.5095 11.688 16.1991C11.287 15.8886 10.9798 15.5265 10.7664 15.1126C10.553 14.6922 10.4463 14.2039 10.4463 13.6477C10.4463 13.1044 10.5627 12.6096 10.7955 12.1634C11.0283 11.7171 11.3549 11.3323 11.7753 11.0089C12.2022 10.6856 12.7034 10.4366 13.279 10.2619C13.8611 10.0873 14.4981 10 15.1902 10C16.1797 10 17.0334 10.1876 17.7513 10.5627C18.4756 10.9378 19.0351 11.4455 19.4296 12.0858C19.8306 12.7196 20.0311 13.431 20.0311 14.22H18.8378C18.8378 13.6056 18.6923 13.0591 18.4013 12.5805C18.1167 12.0955 17.7028 11.7171 17.1595 11.4455C16.6227 11.1674 15.9663 11.0283 15.1902 11.0283C14.4141 11.0283 13.7608 11.148 13.2305 11.3873C12.7066 11.6201 12.3089 11.9338 12.0373 12.3283C11.7721 12.7163 11.6395 13.1497 11.6395 13.6283C11.6395 13.9646 11.7042 14.275 11.8335 14.5596C11.9629 14.8377 12.1731 15.0996 12.4641 15.3454C12.7616 15.5847 13.1529 15.811 13.638 16.0245C14.123 16.2314 14.7213 16.4287 15.4327 16.6162C16.1829 16.8232 16.8491 17.0528 17.4311 17.305C18.0132 17.5573 18.5047 17.8483 18.9057 18.1781C19.3067 18.5015 19.6107 18.8799 19.8176 19.3132C20.0246 19.7465 20.1281 20.251 20.1281 20.8266C20.1281 21.4022 20.0052 21.9196 19.7594 22.3788C19.5201 22.8315 19.1806 23.2163 18.7408 23.5332C18.3075 23.8501 17.7933 24.0927 17.1983 24.2608C16.6098 24.429 15.9663 24.513 15.2678 24.513C14.6404 24.513 14.0163 24.4322 13.3954 24.2705C12.7746 24.1088 12.2054 23.8598 11.688 23.5235C11.1771 23.1807 10.7664 22.741 10.456 22.2042C10.152 21.6674 10 21.0271 10 20.2833H11.1836C11.1836 20.8783 11.3032 21.3795 11.5425 21.787C11.7818 22.1945 12.0987 22.5243 12.4932 22.7765C12.8942 23.0288 13.334 23.2131 13.8126 23.3295C14.2976 23.4394 14.7827 23.4944 15.2678 23.4944C16.0115 23.4944 16.655 23.3845 17.1983 23.1646C17.7481 22.9447 18.1717 22.6375 18.4692 22.243C18.7731 21.842 18.9251 21.3763 18.9251 20.846Z" stroke="white"/>
<path d="M61.0828 19.9147H62.2761C62.1791 20.8654 61.9171 21.6868 61.4903 22.3788C61.0634 23.0643 60.4814 23.5914 59.7441 23.9601C59.0068 24.3287 58.1175 24.513 57.0762 24.513C56.2743 24.513 55.5467 24.3611 54.8935 24.0571C54.2467 23.7531 53.6905 23.323 53.2248 22.7668C52.7592 22.2042 52.4002 21.5315 52.148 20.749C51.8958 19.9664 51.7697 19.0965 51.7697 18.1393V16.3737C51.7697 15.4165 51.8958 14.5499 52.148 13.7738C52.4002 12.9912 52.7624 12.3186 53.2345 11.7559C53.7067 11.1933 54.2726 10.7599 54.9323 10.456C55.5919 10.152 56.3357 10 57.1635 10C58.166 10 59.0326 10.1843 59.7635 10.553C60.4943 10.9151 61.0699 11.439 61.4903 12.1246C61.9171 12.8101 62.1791 13.638 62.2761 14.6081H61.0828C60.9923 13.8449 60.7918 13.1982 60.4814 12.6678C60.1709 12.1375 59.7408 11.7333 59.1911 11.4552C58.6478 11.1706 57.972 11.0283 57.1635 11.0283C56.5039 11.0283 55.9153 11.1544 55.3979 11.4067C54.8805 11.6589 54.4407 12.0211 54.0785 12.4932C53.7164 12.9589 53.4383 13.5183 53.2442 14.1715C53.0567 14.8247 52.9629 15.5523 52.9629 16.3543V18.1393C52.9629 18.9154 53.0535 19.6301 53.2345 20.2833C53.4156 20.9365 53.6808 21.5024 54.03 21.981C54.3858 22.4596 54.8191 22.8315 55.33 23.0967C55.8409 23.3618 56.423 23.4944 57.0762 23.4944C57.9105 23.4944 58.6058 23.3618 59.162 23.0967C59.7247 22.825 60.1612 22.424 60.4717 21.8937C60.7821 21.3634 60.9858 20.7037 61.0828 19.9147Z" fill="white"/>
<path d="M61.0828 19.9147H62.2761C62.1791 20.8654 61.9171 21.6868 61.4903 22.3788C61.0634 23.0643 60.4814 23.5914 59.7441 23.9601C59.0068 24.3287 58.1175 24.513 57.0762 24.513C56.2743 24.513 55.5467 24.3611 54.8935 24.0571C54.2467 23.7531 53.6905 23.323 53.2248 22.7668C52.7592 22.2042 52.4002 21.5315 52.148 20.749C51.8958 19.9664 51.7697 19.0965 51.7697 18.1393V16.3737C51.7697 15.4165 51.8958 14.5499 52.148 13.7738C52.4002 12.9912 52.7624 12.3186 53.2345 11.7559C53.7067 11.1933 54.2726 10.7599 54.9323 10.456C55.5919 10.152 56.3357 10 57.1635 10C58.166 10 59.0326 10.1843 59.7635 10.553C60.4943 10.9151 61.0699 11.439 61.4903 12.1246C61.9171 12.8101 62.1791 13.638 62.2761 14.6081H61.0828C60.9923 13.8449 60.7918 13.1982 60.4814 12.6678C60.1709 12.1375 59.7408 11.7333 59.1911 11.4552C58.6478 11.1706 57.972 11.0283 57.1635 11.0283C56.5039 11.0283 55.9153 11.1544 55.3979 11.4067C54.8805 11.6589 54.4407 12.0211 54.0785 12.4932C53.7164 12.9589 53.4383 13.5183 53.2442 14.1715C53.0567 14.8247 52.9629 15.5523 52.9629 16.3543V18.1393C52.9629 18.9154 53.0535 19.6301 53.2345 20.2833C53.4156 20.9365 53.6808 21.5024 54.03 21.981C54.3858 22.4596 54.8191 22.8315 55.33 23.0967C55.8409 23.3618 56.423 23.4944 57.0762 23.4944C57.9105 23.4944 58.6058 23.3618 59.162 23.0967C59.7247 22.825 60.1612 22.424 60.4717 21.8937C60.7821 21.3634 60.9858 20.7037 61.0828 19.9147Z" stroke="white"/>
<path d="M73.9058 11.2217V24.3184H72.7222V11.2217H67.891V10.1934H72.7222H73.9058H78.7467V11.2217H73.9058Z" fill="white"/>
<path d="M73.9058 11.2217V24.3184H72.7222V11.2217H67.891V10.1934H72.7222H73.9058H78.7467V11.2217H73.9058Z" stroke="white"/>
<path d="M103.437 10.1934H103.708L109.054 24.3184H107.812L103.141 11.656L98.4792 24.3184H97.2374L102.573 10.1934H102.845H103.437Z" fill="white"/>
<path d="M103.437 10.1934H103.708L109.054 24.3184H107.812L103.141 11.656L98.4792 24.3184H97.2374L102.573 10.1934H102.845H103.437Z" stroke="white"/>
<path d="M26.2245 18.5655H29.8334C30.8746 18.5655 31.7477 18.4006 32.4527 18.0708C33.1577 17.7409 33.6912 17.2656 34.0534 16.6447C34.4156 16.0173 34.5967 15.2703 34.5967 14.4037C34.5967 13.5759 34.4156 12.845 34.0534 12.2112C33.6912 11.5774 33.1544 11.0826 32.443 10.7269C31.738 10.3712 30.8682 10.1934 29.8334 10.1934H25.0312V11.2217H26.4154H29.8334C30.6741 11.2217 31.3565 11.3704 31.8803 11.6679C32.4107 11.959 32.7955 12.347 33.0348 12.8321C33.2805 13.3172 33.4034 13.8475 33.4034 14.4231C33.4034 15.0116 33.2805 15.542 33.0348 16.0141C32.7955 16.4862 32.4107 16.8613 31.8803 17.1394C31.3565 17.4111 30.6741 17.5469 29.8334 17.5469H26.4154H25.0312V24.3184H26.2245V18.5655Z" fill="white"/>
<path d="M26.2245 18.5655H29.8334C30.8746 18.5655 31.7477 18.4006 32.4527 18.0708C33.1577 17.7409 33.6912 17.2656 34.0534 16.6447C34.4156 16.0173 34.5967 15.2703 34.5967 14.4037C34.5967 13.5759 34.4156 12.845 34.0534 12.2112C33.6912 11.5774 33.1544 11.0826 32.443 10.7269C31.738 10.3712 30.8682 10.1934 29.8334 10.1934H25.0312V11.2217H26.4154H29.8334C30.6741 11.2217 31.3565 11.3704 31.8803 11.6679C32.4107 11.959 32.7955 12.347 33.0348 12.8321C33.2805 13.3172 33.4034 13.8475 33.4034 14.4231C33.4034 15.0116 33.2805 15.542 33.0348 16.0141C32.7955 16.4862 32.4107 16.8613 31.8803 17.1394C31.3565 17.4111 30.6741 17.5469 29.8334 17.5469H26.4154H25.0312V24.3184H26.2245V18.5655Z" stroke="white"/>
<path d="M87.8602 10.1934H83.2715V11.2217H84.6848H87.8602C88.6363 11.2217 89.2927 11.3478 89.8295 11.6C90.3663 11.8523 90.7705 12.2145 91.0422 12.6866C91.3203 13.1522 91.4593 13.7052 91.4593 14.3455C91.4593 14.8823 91.3332 15.3868 91.081 15.8589C90.8352 16.3245 90.4666 16.6997 89.975 16.9842C89.4835 17.2688 88.8691 17.4111 88.1318 17.4111H84.4647H83.2715V24.3184H84.4647V18.4297H88.5827L91.9929 24.3184H93.2638V24.1922L89.7282 18.1836C90.2265 18.0388 90.6742 17.8201 91.0713 17.5275C91.5628 17.1588 91.9476 16.7029 92.2257 16.1596C92.5103 15.6163 92.6526 15.0116 92.6526 14.3455C92.6526 13.4465 92.4553 12.6898 92.0608 12.0754C91.6728 11.4545 91.1198 10.9856 90.4019 10.6687C89.684 10.3518 88.8368 10.1934 87.8602 10.1934Z" fill="white"/>
<path d="M87.8602 10.1934H83.2715V11.2217H84.6848H87.8602C88.6363 11.2217 89.2927 11.3478 89.8295 11.6C90.3663 11.8523 90.7705 12.2145 91.0422 12.6866C91.3203 13.1522 91.4593 13.7052 91.4593 14.3455C91.4593 14.8823 91.3332 15.3868 91.081 15.8589C90.8352 16.3245 90.4666 16.6997 89.975 16.9842C89.4835 17.2688 88.8691 17.4111 88.1318 17.4111H84.4647H83.2715V24.3184H84.4647V18.4297H88.5827L91.9929 24.3184H93.2638V24.1922L89.7282 18.1836C90.2265 18.0388 90.6742 17.8201 91.0713 17.5275C91.5628 17.1588 91.9476 16.7029 92.2257 16.1596C92.5103 15.6163 92.6526 15.0116 92.6526 14.3455C92.6526 13.4465 92.4553 12.6898 92.0608 12.0754C91.6728 11.4545 91.1198 10.9856 90.4019 10.6687C89.684 10.3518 88.8368 10.1934 87.8602 10.1934Z" stroke="white"/>
<path d="M46.5156 23.3003V24.3189H38.5703V23.3003H46.5156Z" fill="#F7B34E"/>
<path d="M46.5156 23.3003V24.3189H38.5703V23.3003H46.5156Z" stroke="#F7B34E"/>
<path d="M46.4671 11.2217V10.1934H38.5703V11.2217H46.4671Z" fill="#1F729C"/>
<path d="M46.4671 11.2217V10.1934H38.5703V11.2217H46.4671Z" stroke="#1F729C"/>
<path d="M46.4714 17.5479V16.5293H38.5703V17.5479H46.4714Z" fill="#6F2A87"/>
<path d="M46.4714 17.5479V16.5293H38.5703V17.5479H46.4714Z" stroke="#6F2A87"/>
<path d="M28.158 37.119V42.1442C27.9963 42.3835 27.7182 42.6487 27.3237 42.9397C26.9291 43.2307 26.3988 43.4862 25.7327 43.7061C25.0665 43.9195 24.2387 44.0262 23.2491 44.0262C22.4213 44.0262 21.6614 43.8775 20.9693 43.58C20.2773 43.2825 19.6759 42.8524 19.1649 42.2897C18.6605 41.7206 18.2692 41.0383 17.9911 40.2427C17.7194 39.4472 17.5836 38.5547 17.5836 37.5652V35.8578C17.5836 34.8877 17.7097 34.0146 17.962 33.2385C18.2142 32.4559 18.5796 31.7865 19.0582 31.2303C19.5368 30.6741 20.1124 30.2505 20.785 29.9594C21.4641 29.6619 22.224 29.5132 23.0648 29.5132C24.1125 29.5132 24.9954 29.6943 25.7133 30.0565C26.4311 30.4186 26.9906 30.9166 27.3916 31.5504C27.799 32.1778 28.0513 32.8892 28.1483 33.6847H26.955C26.8645 33.122 26.6769 32.6046 26.3923 32.1325C26.1078 31.6539 25.6939 31.2691 25.1506 30.9781C24.6138 30.687 23.9185 30.5415 23.0648 30.5415C22.3793 30.5415 21.7681 30.6676 21.2313 30.9199C20.7009 31.1721 20.2547 31.531 19.8925 31.9967C19.5303 32.4624 19.2555 33.0218 19.0679 33.675C18.8803 34.3218 18.7866 35.0429 18.7866 35.8384V37.5652C18.7866 38.393 18.8901 39.14 19.097 39.8062C19.3104 40.4723 19.6144 41.0447 20.0089 41.5233C20.4034 42.0019 20.8756 42.3706 21.4253 42.6293C21.975 42.8815 22.5862 43.0076 23.2588 43.0076C23.9767 43.0076 24.5879 42.9397 25.0924 42.8039C25.5968 42.6681 26.0011 42.5064 26.305 42.3188C26.6155 42.1248 26.8386 41.9437 26.9744 41.7755V38.1376H23.1812V37.119H28.158Z" fill="white"/>
<path d="M28.158 37.119V42.1442C27.9963 42.3835 27.7182 42.6487 27.3237 42.9397C26.9291 43.2307 26.3988 43.4862 25.7327 43.7061C25.0665 43.9195 24.2387 44.0262 23.2491 44.0262C22.4213 44.0262 21.6614 43.8775 20.9693 43.58C20.2773 43.2825 19.6759 42.8524 19.1649 42.2897C18.6605 41.7206 18.2692 41.0383 17.9911 40.2427C17.7194 39.4472 17.5836 38.5547 17.5836 37.5652V35.8578C17.5836 34.8877 17.7097 34.0146 17.962 33.2385C18.2142 32.4559 18.5796 31.7865 19.0582 31.2303C19.5368 30.6741 20.1124 30.2505 20.785 29.9594C21.4641 29.6619 22.224 29.5132 23.0648 29.5132C24.1125 29.5132 24.9954 29.6943 25.7133 30.0565C26.4311 30.4186 26.9906 30.9166 27.3916 31.5504C27.799 32.1778 28.0513 32.8892 28.1483 33.6847H26.955C26.8645 33.122 26.6769 32.6046 26.3923 32.1325C26.1078 31.6539 25.6939 31.2691 25.1506 30.9781C24.6138 30.687 23.9185 30.5415 23.0648 30.5415C22.3793 30.5415 21.7681 30.6676 21.2313 30.9199C20.7009 31.1721 20.2547 31.531 19.8925 31.9967C19.5303 32.4624 19.2555 33.0218 19.0679 33.675C18.8803 34.3218 18.7866 35.0429 18.7866 35.8384V37.5652C18.7866 38.393 18.8901 39.14 19.097 39.8062C19.3104 40.4723 19.6144 41.0447 20.0089 41.5233C20.4034 42.0019 20.8756 42.3706 21.4253 42.6293C21.975 42.8815 22.5862 43.0076 23.2588 43.0076C23.9767 43.0076 24.5879 42.9397 25.0924 42.8039C25.5968 42.6681 26.0011 42.5064 26.305 42.3188C26.6155 42.1248 26.8386 41.9437 26.9744 41.7755V38.1376H23.1812V37.119H28.158Z" stroke="white"/>
<path d="M41.2999 42.8129V43.8315H34.3247H33.9755H33.1315V29.7065H34.3247V42.8129H41.2999Z" fill="white"/>
<path d="M41.2999 42.8129V43.8315H34.3247H33.9755H33.1315V29.7065H34.3247V42.8129H41.2999Z" stroke="white"/>
<path d="M57.2746 36.013V37.5264C57.2746 38.5159 57.1453 39.4117 56.8866 40.2136C56.6344 41.0091 56.2657 41.6915 55.7806 42.2606C55.3021 42.8297 54.7264 43.2663 54.0538 43.5703C53.3812 43.8742 52.6245 44.0262 51.7837 44.0262C50.9624 44.0262 50.2121 43.8742 49.5331 43.5703C48.8604 43.2663 48.2816 42.8297 47.7965 42.2606C47.3115 41.6915 46.9364 41.0091 46.6712 40.2136C46.406 39.4117 46.2734 38.5159 46.2734 37.5264V36.013C46.2734 35.0235 46.4028 34.131 46.6615 33.3355C46.9267 32.5335 47.3018 31.8479 47.7868 31.2788C48.2719 30.7097 48.8507 30.2731 49.5234 29.9691C50.196 29.6652 50.943 29.5132 51.7643 29.5132C52.6051 29.5132 53.3618 29.6652 54.0344 29.9691C54.707 30.2731 55.2859 30.7097 55.7709 31.2788C56.256 31.8479 56.6279 32.5335 56.8866 33.3355C57.1453 34.131 57.2746 35.0235 57.2746 36.013ZM56.0911 37.5264V35.9936C56.0911 35.1593 55.9941 34.4091 55.8001 33.7429C55.6125 33.0768 55.3312 32.5076 54.956 32.0355C54.5874 31.5634 54.1347 31.2012 53.5979 30.949C53.0611 30.6967 52.4499 30.5706 51.7643 30.5706C51.0982 30.5706 50.4999 30.6967 49.9696 30.949C49.4393 31.2012 48.9865 31.5634 48.6114 32.0355C48.2428 32.5076 47.9582 33.0768 47.7577 33.7429C47.5637 34.4091 47.4667 35.1593 47.4667 35.9936V37.5264C47.4667 38.3672 47.5637 39.1239 47.7577 39.7965C47.9582 40.4626 48.246 41.035 48.6211 41.5136C48.9963 41.9857 49.449 42.3479 49.9793 42.6002C50.5161 42.8524 51.1176 42.9785 51.7837 42.9785C52.4758 42.9785 53.0869 42.8524 53.6173 42.6002C54.1476 42.3479 54.5971 41.9857 54.9657 41.5136C55.3344 41.035 55.6125 40.4626 55.8001 39.7965C55.9941 39.1239 56.0911 38.3672 56.0911 37.5264Z" fill="white"/>
<path d="M57.2746 36.013V37.5264C57.2746 38.5159 57.1453 39.4117 56.8866 40.2136C56.6344 41.0091 56.2657 41.6915 55.7806 42.2606C55.3021 42.8297 54.7264 43.2663 54.0538 43.5703C53.3812 43.8742 52.6245 44.0262 51.7837 44.0262C50.9624 44.0262 50.2121 43.8742 49.5331 43.5703C48.8604 43.2663 48.2816 42.8297 47.7965 42.2606C47.3115 41.6915 46.9364 41.0091 46.6712 40.2136C46.406 39.4117 46.2734 38.5159 46.2734 37.5264V36.013C46.2734 35.0235 46.4028 34.131 46.6615 33.3355C46.9267 32.5335 47.3018 31.8479 47.7868 31.2788C48.2719 30.7097 48.8507 30.2731 49.5234 29.9691C50.196 29.6652 50.943 29.5132 51.7643 29.5132C52.6051 29.5132 53.3618 29.6652 54.0344 29.9691C54.707 30.2731 55.2859 30.7097 55.7709 31.2788C56.256 31.8479 56.6279 32.5335 56.8866 33.3355C57.1453 34.131 57.2746 35.0235 57.2746 36.013ZM56.0911 37.5264V35.9936C56.0911 35.1593 55.9941 34.4091 55.8001 33.7429C55.6125 33.0768 55.3312 32.5076 54.956 32.0355C54.5874 31.5634 54.1347 31.2012 53.5979 30.949C53.0611 30.6967 52.4499 30.5706 51.7643 30.5706C51.0982 30.5706 50.4999 30.6967 49.9696 30.949C49.4393 31.2012 48.9865 31.5634 48.6114 32.0355C48.2428 32.5076 47.9582 33.0768 47.7577 33.7429C47.5637 34.4091 47.4667 35.1593 47.4667 35.9936V37.5264C47.4667 38.3672 47.5637 39.1239 47.7577 39.7965C47.9582 40.4626 48.246 41.035 48.6211 41.5136C48.9963 41.9857 49.449 42.3479 49.9793 42.6002C50.5161 42.8524 51.1176 42.9785 51.7837 42.9785C52.4758 42.9785 53.0869 42.8524 53.6173 42.6002C54.1476 42.3479 54.5971 41.9857 54.9657 41.5136C55.3344 41.035 55.6125 40.4626 55.8001 39.7965C55.9941 39.1239 56.0911 38.3672 56.0911 37.5264Z" stroke="white"/>
<path d="M82.7111 29.7065H82.9827L88.3281 43.8315H87.0863L82.4154 31.1692L77.7537 43.8315H76.512L81.8476 29.7065H82.1193H82.7111Z" fill="white"/>
<path d="M82.7111 29.7065H82.9827L88.3281 43.8315H87.0863L82.4154 31.1692L77.7537 43.8315H76.512L81.8476 29.7065H82.1193H82.7111Z" stroke="white"/>
<path d="M101.47 42.8129V43.8315H94.495H94.1458H93.3018V29.7065H94.495V42.8129H101.47Z" fill="white"/>
<path d="M101.47 42.8129V43.8315H94.495H94.1458H93.3018V29.7065H94.495V42.8129H101.47Z" stroke="white"/>
<path d="M62.248 37.0407H67.115C67.8523 37.0407 68.4602 37.1668 68.9388 37.419C69.4174 37.6648 69.7731 38.0011 70.0059 38.428C70.2388 38.8548 70.3552 39.3366 70.3552 39.8734C70.3552 40.4814 70.2226 41.0052 69.9574 41.445C69.6923 41.8848 69.3107 42.2244 68.8127 42.4637C68.3212 42.6965 67.7261 42.8129 67.0277 42.8129H63.6388H62.8651H62.2546V43.8315H67.0277C67.9266 43.8315 68.7124 43.6796 69.3851 43.3756C70.0641 43.0651 70.5912 42.6157 70.9664 42.0271C71.3479 41.4321 71.5387 40.7077 71.5387 39.854C71.5387 39.259 71.4061 38.7125 71.141 38.2145C70.8823 37.7165 70.5136 37.3058 70.035 36.9825C69.6765 36.732 69.2714 36.558 68.8197 36.4604C69.0845 36.3717 69.3279 36.2579 69.55 36.1191C70.0221 35.8216 70.3875 35.44 70.6462 34.9743C70.9049 34.5022 71.0343 33.9751 71.0343 33.393C71.0343 32.7527 70.9276 32.203 70.7141 31.7438C70.5072 31.2781 70.2032 30.8933 69.8022 30.5894C69.4012 30.2854 68.9162 30.0623 68.347 29.92C67.7779 29.7777 67.1344 29.7065 66.4165 29.7065H62.2546V30.7349H63.0267H63.6388H66.4165C67.1796 30.7349 67.8135 30.8287 68.3179 31.0162C68.8224 31.2038 69.2007 31.4948 69.453 31.8893C69.7052 32.2774 69.8313 32.7689 69.8313 33.3639C69.8313 33.946 69.702 34.4375 69.4433 34.8385C69.191 35.233 68.8191 35.5305 68.3276 35.731C67.8361 35.9315 67.2411 36.0317 66.5426 36.0317H62.248V37.0407Z" fill="white"/>
<path d="M62.248 37.0407H67.115C67.8523 37.0407 68.4602 37.1668 68.9388 37.419C69.4174 37.6648 69.7731 38.0011 70.0059 38.428C70.2388 38.8548 70.3552 39.3366 70.3552 39.8734C70.3552 40.4814 70.2226 41.0052 69.9574 41.445C69.6923 41.8848 69.3107 42.2244 68.8127 42.4637C68.3212 42.6965 67.7261 42.8129 67.0277 42.8129H63.6388H62.8651H62.2546V43.8315H67.0277C67.9266 43.8315 68.7124 43.6796 69.3851 43.3756C70.0641 43.0651 70.5912 42.6157 70.9664 42.0271C71.3479 41.4321 71.5387 40.7077 71.5387 39.854C71.5387 39.259 71.4061 38.7125 71.141 38.2145C70.8823 37.7165 70.5136 37.3058 70.035 36.9825C69.6765 36.732 69.2714 36.558 68.8197 36.4604C69.0845 36.3717 69.3279 36.2579 69.55 36.1191C70.0221 35.8216 70.3875 35.44 70.6462 34.9743C70.9049 34.5022 71.0343 33.9751 71.0343 33.393C71.0343 32.7527 70.9276 32.203 70.7141 31.7438C70.5072 31.2781 70.2032 30.8933 69.8022 30.5894C69.4012 30.2854 68.9162 30.0623 68.347 29.92C67.7779 29.7777 67.1344 29.7065 66.4165 29.7065H62.2546V30.7349H63.0267H63.6388H66.4165C67.1796 30.7349 67.8135 30.8287 68.3179 31.0162C68.8224 31.2038 69.2007 31.4948 69.453 31.8893C69.7052 32.2774 69.8313 32.7689 69.8313 33.3639C69.8313 33.946 69.702 34.4375 69.4433 34.8385C69.191 35.233 68.8191 35.5305 68.3276 35.731C67.8361 35.9315 67.2411 36.0317 66.5426 36.0317H62.248V37.0407Z" stroke="white"/>
</svg>
